<svg xmlns="http://www.w3.org/2000/svg" width="960" height="520" viewBox="0 0 960 520" role="img" aria-labelledby="title desc">
  <title id="title">Platform guide path</title>
  <desc id="desc">Recommended user path from overview to Agent Lab and report export.</desc>
  <rect width="960" height="520" rx="24" fill="#f6f8f7"/>
  <rect x="42" y="42" width="876" height="436" rx="18" fill="#ffffff" stroke="#dfe7e4" stroke-width="2"/>
  <text x="76" y="92" fill="#17211f" font-family="Inter, Arial, sans-serif" font-size="28" font-weight="800">Recommended Operation Path</text>
  <text x="76" y="124" fill="#65716f" font-family="Inter, Arial, sans-serif" font-size="16">A simple way to move from dataset understanding to decision output</text>
  <g font-family="Inter, Arial, sans-serif">
    <g transform="translate(88 190)">
      <circle cx="52" cy="52" r="52" fill="#dff3f0" stroke="#a8d9d4"/>
      <text x="52" y="47" text-anchor="middle" fill="#0b7f79" font-size="14" font-weight="800">Overview</text>
      <text x="52" y="68" text-anchor="middle" fill="#35514e" font-size="11">data context</text>
    </g>
    <g transform="translate(232 190)">
      <circle cx="52" cy="52" r="52" fill="#fff0d6" stroke="#f0d6a7"/>
      <text x="52" y="47" text-anchor="middle" fill="#b97012" font-size="14" font-weight="800">Twin Lab</text>
      <text x="52" y="68" text-anchor="middle" fill="#5e4b25" font-size="11">state estimate</text>
    </g>
    <g transform="translate(376 190)">
      <circle cx="52" cy="52" r="52" fill="#f6f8f7" stroke="#dfe7e4"/>
      <text x="52" y="47" text-anchor="middle" fill="#17211f" font-size="14" font-weight="800">What-if</text>
      <text x="52" y="68" text-anchor="middle" fill="#65716f" font-size="11">compare A/B</text>
    </g>
    <g transform="translate(520 190)">
      <circle cx="52" cy="52" r="52" fill="#fde8ec" stroke="#efc7cf"/>
      <text x="52" y="47" text-anchor="middle" fill="#b34a5a" font-size="14" font-weight="800">Recommend</text>
      <text x="52" y="68" text-anchor="middle" fill="#69333d" font-size="11">rank designs</text>
    </g>
    <g transform="translate(664 190)">
      <circle cx="52" cy="52" r="52" fill="#17211f"/>
      <text x="52" y="47" text-anchor="middle" fill="#ffffff" font-size="14" font-weight="800">Agent Lab</text>
      <text x="52" y="68" text-anchor="middle" fill="#aac1bd" font-size="11">full workflow</text>
    </g>
    <g transform="translate(808 190)">
      <circle cx="52" cy="52" r="52" fill="#22312e"/>
      <text x="52" y="47" text-anchor="middle" fill="#ffffff" font-size="14" font-weight="800">Report</text>
      <text x="52" y="68" text-anchor="middle" fill="#aac1bd" font-size="11">export</text>
    </g>
    <g stroke="#aab8b5" stroke-width="3" stroke-linecap="round">
      <line x1="196" y1="242" x2="220" y2="242"/>
      <line x1="340" y1="242" x2="364" y2="242"/>
      <line x1="484" y1="242" x2="508" y2="242"/>
      <line x1="628" y1="242" x2="652" y2="242"/>
      <line x1="772" y1="242" x2="796" y2="242"/>
    </g>
    <rect x="168" y="350" width="624" height="62" rx="14" fill="#f6f8f7" stroke="#dfe7e4"/>
    <text x="480" y="377" text-anchor="middle" fill="#17211f" font-size="15" font-weight="800">Simplest example</text>
    <text x="480" y="399" text-anchor="middle" fill="#65716f" font-size="13">Type a task, parse it, run workflow, inspect risk map, export Markdown.</text>
  </g>
</svg>
